<svg width="167" height="167" viewBox="0 0 167 167" fill="none" xmlns="http://www.w3.org/2000/svg">
<path d="M139.167 55.6667H27.8333V139.167C27.8333 146.821 34.0958 153.083 41.7499 153.083H125.25C132.904 153.083 139.167 146.821 139.167 139.167V55.6667Z" fill="#616161"/>
<path d="M125.25 13.9167H41.7499C34.0958 13.9167 27.8333 20.1792 27.8333 27.8334V59.1459H139.167V27.8334C139.167 20.1792 132.904 13.9167 125.25 13.9167Z" fill="#424242"/>
<path d="M125.25 48.7084H41.7499C39.6624 48.7084 38.2708 47.3167 38.2708 45.2292V27.8334C38.2708 25.7459 39.6624 24.3542 41.7499 24.3542H125.25C127.337 24.3542 128.729 25.7459 128.729 27.8334V45.2292C128.729 47.3167 127.337 48.7084 125.25 48.7084Z" fill="#9CCC65"/>
<path d="M114.812 34.7917H121.771V41.7501H114.812V34.7917ZM100.896 34.7917H107.854V41.7501H100.896V34.7917Z" fill="#33691E"/>
<path d="M125.25 80.0209H114.812C112.725 80.0209 111.333 78.6292 111.333 76.5417V69.5834C111.333 67.4959 112.725 66.1042 114.812 66.1042H125.25C127.337 66.1042 128.729 67.4959 128.729 69.5834V76.5417C128.729 78.6292 127.337 80.0209 125.25 80.0209Z" fill="#FF5252"/>
<path d="M52.1874 80.0209H41.7499C39.6624 80.0209 38.2708 78.6292 38.2708 76.5417V69.5834C38.2708 67.4959 39.6624 66.1042 41.7499 66.1042H52.1874C54.2749 66.1042 55.6666 67.4959 55.6666 69.5834V76.5417C55.6666 78.6292 54.2749 80.0209 52.1874 80.0209ZM76.5416 80.0209H66.1041C64.0166 80.0209 62.6249 78.6292 62.6249 76.5417V69.5834C62.6249 67.4959 64.0166 66.1042 66.1041 66.1042H76.5416C78.6291 66.1042 80.0208 67.4959 80.0208 69.5834V76.5417C80.0208 78.6292 78.6291 80.0209 76.5416 80.0209ZM100.896 80.0209H90.4582C88.3707 80.0209 86.9791 78.6292 86.9791 76.5417V69.5834C86.9791 67.4959 88.3707 66.1042 90.4582 66.1042H100.896C102.983 66.1042 104.375 67.4959 104.375 69.5834V76.5417C104.375 78.6292 102.983 80.0209 100.896 80.0209ZM52.1874 100.896H41.7499C39.6624 100.896 38.2708 99.5042 38.2708 97.4167V90.4584C38.2708 88.3709 39.6624 86.9792 41.7499 86.9792H52.1874C54.2749 86.9792 55.6666 88.3709 55.6666 90.4584V97.4167C55.6666 99.5042 54.2749 100.896 52.1874 100.896ZM76.5416 100.896H66.1041C64.0166 100.896 62.6249 99.5042 62.6249 97.4167V90.4584C62.6249 88.3709 64.0166 86.9792 66.1041 86.9792H76.5416C78.6291 86.9792 80.0208 88.3709 80.0208 90.4584V97.4167C80.0208 99.5042 78.6291 100.896 76.5416 100.896ZM100.896 100.896H90.4582C88.3707 100.896 86.9791 99.5042 86.9791 97.4167V90.4584C86.9791 88.3709 88.3707 86.9792 90.4582 86.9792H100.896C102.983 86.9792 104.375 88.3709 104.375 90.4584V97.4167C104.375 99.5042 102.983 100.896 100.896 100.896ZM52.1874 121.771H41.7499C39.6624 121.771 38.2708 120.379 38.2708 118.292V111.333C38.2708 109.246 39.6624 107.854 41.7499 107.854H52.1874C54.2749 107.854 55.6666 109.246 55.6666 111.333V118.292C55.6666 120.379 54.2749 121.771 52.1874 121.771ZM76.5416 121.771H66.1041C64.0166 121.771 62.6249 120.379 62.6249 118.292V111.333C62.6249 109.246 64.0166 107.854 66.1041 107.854H76.5416C78.6291 107.854 80.0208 109.246 80.0208 111.333V118.292C80.0208 120.379 78.6291 121.771 76.5416 121.771ZM100.896 121.771H90.4582C88.3707 121.771 86.9791 120.379 86.9791 118.292V111.333C86.9791 109.246 88.3707 107.854 90.4582 107.854H100.896C102.983 107.854 104.375 109.246 104.375 111.333V118.292C104.375 120.379 102.983 121.771 100.896 121.771ZM52.1874 142.646H41.7499C39.6624 142.646 38.2708 141.254 38.2708 139.167V132.208C38.2708 130.121 39.6624 128.729 41.7499 128.729H52.1874C54.2749 128.729 55.6666 130.121 55.6666 132.208V139.167C55.6666 141.254 54.2749 142.646 52.1874 142.646ZM76.5416 142.646H66.1041C64.0166 142.646 62.6249 141.254 62.6249 139.167V132.208C62.6249 130.121 64.0166 128.729 66.1041 128.729H76.5416C78.6291 128.729 80.0208 130.121 80.0208 132.208V139.167C80.0208 141.254 78.6291 142.646 76.5416 142.646ZM100.896 142.646H90.4582C88.3707 142.646 86.9791 141.254 86.9791 139.167V132.208C86.9791 130.121 88.3707 128.729 90.4582 128.729H100.896C102.983 128.729 104.375 130.121 104.375 132.208V139.167C104.375 141.254 102.983 142.646 100.896 142.646Z" fill="#E0E0E0"/>
<path d="M125.25 100.896H114.812C112.725 100.896 111.333 99.5042 111.333 97.4167V90.4584C111.333 88.3709 112.725 86.9792 114.812 86.9792H125.25C127.337 86.9792 128.729 88.3709 128.729 90.4584V97.4167C128.729 99.5042 127.337 100.896 125.25 100.896ZM125.25 121.771H114.812C112.725 121.771 111.333 120.379 111.333 118.292V111.333C111.333 109.246 112.725 107.854 114.812 107.854H125.25C127.337 107.854 128.729 109.246 128.729 111.333V118.292C128.729 120.379 127.337 121.771 125.25 121.771ZM125.25 142.646H114.812C112.725 142.646 111.333 141.254 111.333 139.167V132.208C111.333 130.121 112.725 128.729 114.812 128.729H125.25C127.337 128.729 128.729 130.121 128.729 132.208V139.167C128.729 141.254 127.337 142.646 125.25 142.646Z" fill="#BDBDBD"/>
</svg>
